HIERARCHY
ROOT SpineBase
{
  OFFSET 0.000000 0.000000 0.000000
  CHANNELS 6 Xposition Yposition Zposition Zrotation Xrotation Yrotation
  JOINT SpineMid
  {
    OFFSET 0.000000 26.506700 0.000000
    CHANNELS 3 Zrotation Xrotation Yrotation
    JOINT SpineShoulder
    {
      OFFSET -0.039298 19.828189 -0.509424
      CHANNELS 3 Zrotation Xrotation Yrotation
      JOINT Neck
      {
        OFFSET -0.062450 6.565113 -0.401965
        CHANNELS 3 Zrotation Xrotation Yrotation
        JOINT Head
        {
          OFFSET 0.957558 13.113538 -2.192854
          CHANNELS 3 Zrotation Xrotation Yrotation
          End Site
          {
            OFFSET 0 0 0
          }
        }
      }
      JOINT ShoulderLeft
      {
        OFFSET -15.279032 -3.881397 -0.252758
        CHANNELS 3 Zrotation Xrotation Yrotation
        JOINT ElbowLeft
        {
          OFFSET -3.975362 -23.791999 1.208971
          CHANNELS 3 Zrotation Xrotation Yrotation
          JOINT WristLeft
          {
            OFFSET 0.750599 -20.613284 -5.203482
            CHANNELS 3 Zrotation Xrotation Yrotation
            JOINT HandLeft
            {
              OFFSET 1.885317 -6.791195 -1.912380
              CHANNELS 3 Zrotation Xrotation Yrotation
              JOINT HandTipLeft
              {
                OFFSET 0.007351 -6.577695 -2.163328
                CHANNELS 3 Zrotation Xrotation Yrotation
                End Site
                {
                  OFFSET 0 0 0
                }
              }
              JOINT ThumbLeft
              {
                OFFSET 2.767303 -1.481312 -1.535187
                CHANNELS 3 Zrotation Xrotation Yrotation
                End Site
                {
                  OFFSET 0 0 0
                }
              }
            }
          }
        }
      }
      JOINT ShoulderRight
      {
        OFFSET 16.647086 -3.617734 -0.630887
        CHANNELS 3 Zrotation Xrotation Yrotation
        JOINT ElbowRight
        {
          OFFSET 4.996481 -22.830805 3.376596
          CHANNELS 3 Zrotation Xrotation Yrotation
          JOINT WristRight
          {
            OFFSET -3.059036 -18.177273 -10.007766
            CHANNELS 3 Zrotation Xrotation Yrotation
            JOINT HandRight
            {
              OFFSET -2.541789 -6.404826 -4.221160
              CHANNELS 3 Zrotation Xrotation Yrotation
              JOINT HandTipRight
              {
                OFFSET -0.886712 -6.008652 -3.342158
                CHANNELS 3 Zrotation Xrotation Yrotation
                End Site
                {
                  OFFSET 0 0 0
                }
              }
              JOINT ThumbRight
              {
                OFFSET 2.310089 -1.740817 -1.894630
                CHANNELS 3 Zrotation Xrotation Yrotation
                End Site
                {
                  OFFSET 0 0 0
                }
              }
            }
          }
        }
      }
    }
  }
  JOINT HipLeft
  {
    OFFSET -6.814087 0.373198 -2.678462
    CHANNELS 3 Zrotation Xrotation Yrotation
    JOINT KneeLeft
    {
      OFFSET -1.290752 -31.736045 7.142119
      CHANNELS 3 Zrotation Xrotation Yrotation
      JOINT AnkleLeft
      {
        OFFSET 1.416363 -31.453804 12.297999
        CHANNELS 3 Zrotation Xrotation Yrotation
        JOINT FootLeft
        {
          OFFSET -0.057759 -4.791534 -10.769897
          CHANNELS 3 Zrotation Xrotation Yrotation
          End Site
          {
            OFFSET 0 0 0
          }
        }
      }
    }
  }
  JOINT HipRight
  {
    OFFSET 6.475726 1.332861 -2.822690
    CHANNELS 3 Zrotation Xrotation Yrotation
    JOINT KneeRight
    {
      OFFSET 6.176005 -31.894276 3.959089
      CHANNELS 3 Zrotation Xrotation Yrotation
      JOINT AnkleRight
      {
        OFFSET 1.091474 -30.943477 15.747497
        CHANNELS 3 Zrotation Xrotation Yrotation
        JOINT FootRight
        {
          OFFSET 1.052639 -5.800775 -7.625136
          CHANNELS 3 Zrotation Xrotation Yrotation
          End Site
          {
            OFFSET 0 0 0
          }
        }
      }
    }
  }
}
MOTION
Frames: 5
Frame Time: 0.033333
16.601403 67.641687 340.100947 0.708052 -0.672386 4.544405 -0.652606 0.726324 -4.536114 -0.000000 0.000000 0.000000 -1.864097 1.311936 -0.386480 0.000000 0.000000 0.000000 -0.000000 0.000000 0.000000 -0.045042 2.495260 0.102663 -1.822345 1.460767 1.498661 2.187863 -1.869979 -1.650898 0.000000 0.000000 0.000000 0.000000 0.000000 0.000000 4.909016 32.566266 6.840500 -9.673517 2.528309 -12.977562 -6.612037 9.447871 -5.809633 -12.376804 4.375699 9.450753 0.000000 0.000000 0.000000 0.000000 0.000000 0.000000 -0.045870 2.436665 -4.518460 -1.650510 -0.892626 -0.493273 -1.032086 1.096541 5.183711 0.000000 0.000000 0.000000 -4.707712 -5.288630 -6.363672 5.851855 11.135738 2.588936 -10.180810 12.371629 10.363390 0.000000 0.000000 0.000000
16.739262 67.625364 340.166923 0.887740 -0.726099 5.265883 -0.817436 0.804426 -5.254519 0.286049 -0.793282 0.011943 -2.147405 2.182678 -0.372637 0.000000 0.000000 0.000000 -0.285911 0.793332 -0.007983 0.063308 3.199730 0.098100 -2.404214 0.530733 1.532529 1.354250 -2.444712 -1.360233 0.000000 0.000000 0.000000 0.000000 0.000000 0.000000 -2.895584 26.690738 6.246788 -1.733553 6.279383 -8.328882 -7.744335 10.694550 -5.549313 -12.081548 3.744463 9.358518 0.000000 0.000000 0.000000 0.000000 0.000000 0.000000 -0.487048 2.622595 -5.302909 -1.373031 -0.910094 -0.426461 -1.326739 0.955327 5.901790 0.000000 0.000000 0.000000 -5.078275 -5.005421 -7.068091 5.986321 10.885401 2.572871 -10.388326 10.115427 10.344626 0.000000 0.000000 0.000000
16.813783 67.666281 340.195378 0.962840 -0.714940 5.895319 -0.884406 0.809956 -5.883060 0.387587 -0.781816 0.018930 -2.060805 2.197862 -0.353669 0.000000 0.000000 0.000000 -0.387365 0.781926 -0.013642 0.001247 3.809828 0.137271 -2.690745 -1.112723 1.250314 1.763221 -0.596012 -1.165643 0.000000 0.000000 0.000000 0.000000 0.000000 0.000000 -5.833360 22.488989 5.311488 0.774484 10.679943 -6.143069 -7.275296 8.624902 -5.366649 -12.296804 4.588201 9.338724 0.000000 0.000000 0.000000 0.000000 0.000000 0.000000 -0.726601 2.875573 -5.985123 -1.147048 -1.097526 -0.363649 -1.587644 0.853468 6.450204 0.000000 0.000000 0.000000 -5.290340 -4.672051 -7.650847 6.255059 10.320969 2.592636 -10.950708 10.315469 10.837871 0.000000 0.000000 0.000000
16.838573 67.696207 340.209859 0.982529 -0.704644 6.353680 -0.347885 0.192870 -6.331392 -0.152423 -0.216120 0.007929 -1.812100 2.215054 -0.314504 0.000000 0.000000 0.000000 0.417285 0.906510 -0.009298 -1.067795 4.020229 0.181287 -3.100020 -2.671005 0.951167 1.328947 0.088311 -0.677694 0.000000 0.000000 0.000000 0.000000 0.000000 0.000000 -6.986944 19.859680 4.589706 3.222417 13.116931 -5.710681 -9.437303 4.170537 -3.883448 -11.642174 9.160014 9.124768 0.000000 0.000000 0.000000 0.000000 0.000000 0.000000 -0.776250 2.980979 -6.460843 -1.102660 -1.150747 -0.351641 -1.725950 0.765152 6.800801 0.000000 0.000000 0.000000 -5.317688 -4.414898 -8.055678 6.283186 10.055204 2.573021 -11.242500 10.291580 11.153928 0.000000 0.000000 0.000000
16.863517 67.678894 340.204815 0.971561 -0.663161 6.589842 -0.317904 0.145914 -6.567494 -0.197679 -0.172216 0.006403 -1.165190 2.131654 -0.223238 0.000000 0.000000 0.000000 0.661601 0.832237 0.006141 -1.491708 4.000540 0.219946 -3.440870 -4.909292 0.316855 0.720783 4.341731 0.288392 0.000000 0.000000 0.000000 0.000000 0.000000 0.000000 -4.890261 19.733674 4.471404 1.908210 13.861002 -6.598001 -9.371439 5.994982 -4.492590 -12.395210 6.441251 9.324855 0.000000 0.000000 0.000000 0.000000 0.000000 0.000000 -0.807972 2.960135 -6.708639 -1.039357 -1.135567 -0.332436 -1.923242 0.694070 7.202369 0.000000 0.000000 0.000000 -5.298848 -4.164780 -8.231823 6.213682 9.753683 2.509209 -11.487768 10.237230 11.580621 0.000000 0.000000 0.000000
